<?xml version="1.0" encoding="UTF-8" standalone="no"?>
<!DOCTYPE svg PUBLIC "-//W3C//DTD SVG 1.1//EN" "http://www.w3.org/Graphics/SVG/1.1/DTD/svg11.dtd">
<svg version="1.1" xmlns="http://www.w3.org/2000/svg" xmlns:xlink="http://www.w3.org/1999/xlink" preserveAspectRatio="xMidYMid meet" viewBox="0 0 640 640" width="100" height="100"><defs><path d="M346.14 146.14L430.8 197.84L261.47 197.84L92.16 197.84L176.81 146.14L261.47 94.43L346.14 146.14Z" id="a1dIMxWyYW"></path><path d="M404.07 197.84L430.8 197.84L430.8 320L404.07 320L404.07 197.84Z" id="bJgeQm1t"></path><path d="M346.14 249.55L430.8 197.84L261.47 197.84L92.16 197.84L176.81 249.55L261.47 301.25L346.14 249.55Z" id="b1xqz2UiP1"></path><path d="M139 258.92L261.48 334.17L139 334.17L139 258.92Z" id="l29dtSTkH"></path><path d="M261.48 409.42L139 334.17L261.48 334.17L261.48 409.42Z" id="c5RpsQwa15"></path><path d="M381.24 258.92L258.76 334.17L381.24 334.17L381.24 258.92Z" id="djSf64MQB"></path><path d="M258.76 409.42L381.24 334.17L258.76 334.17L258.76 409.42Z" id="g3sqRj41b"></path></defs><g><g><g><use xlink:href="#a1dIMxWyYW" opacity="1" fill="#090b0a" fill-opacity="1"></use></g><g><use xlink:href="#bJgeQm1t" opacity="1" fill="#090b0a" fill-opacity="1"></use></g><g><use xlink:href="#b1xqz2UiP1" opacity="1" fill="#090b0a" fill-opacity="1"></use></g><g><use xlink:href="#l29dtSTkH" opacity="1" fill="#090b0a" fill-opacity="1"></use></g><g><use xlink:href="#c5RpsQwa15" opacity="1" fill="#090b0a" fill-opacity="1"></use></g><g><use xlink:href="#djSf64MQB" opacity="1" fill="#090b0a" fill-opacity="1"></use></g><g><use xlink:href="#g3sqRj41b" opacity="1" fill="#090b0a" fill-opacity="1"></use></g></g></g></svg>